<?xml version="1.0" encoding="UTF-8" standalone="no"?>
<!DOCTYPE svg PUBLIC "-//W3C//DTD SVG 1.1//EN"
 "http://www.w3.org/Graphics/SVG/1.1/DTD/svg11.dtd">
<!-- Generated by graphviz version 2.40.1 (20161225.0304)
 -->
<!-- Title: hlatyping_dag Pages: 1 -->
<svg width="298pt" height="379pt"
 viewBox="0.00 0.00 298.19 379.20" xmlns="http://www.w3.org/2000/svg" xmlns:xlink="http://www.w3.org/1999/xlink">
<g id="graph0" class="graph" transform="scale(1 1) rotate(0) translate(4 375.2)">
<title>hlatyping_dag</title>
<polygon fill="#ffffff" stroke="transparent" points="-4,4 -4,-375.2 294.194,-375.2 294.194,4 -4,4"/>
<!-- p0 -->
<g id="node1" class="node">
<title>p0</title>
<ellipse fill="#000000" stroke="#000000" cx="79.6" cy="-352.6" rx="3.6" ry="3.6"/>
<text text-anchor="middle" x="38" y="-360" font-family="Times,serif" font-size="14.00" fill="#000000">Channel.from</text>
</g>
<!-- p1 -->
<g id="node2" class="node">
<title>p1</title>
<ellipse fill="none" stroke="#000000" cx="79.6" cy="-308.5" rx="3.5" ry="3.5"/>
<text text-anchor="middle" x="63.6" y="-315.8" font-family="Times,serif" font-size="14.00" fill="#000000">map</text>
</g>
<!-- p0&#45;&gt;p1 -->
<g id="edge1" class="edge">
<title>p0&#45;&gt;p1</title>
<path fill="none" stroke="#000000" d="M79.6,-348.8401C79.6,-343.0469 79.6,-331.644 79.6,-322.4354"/>
<polygon fill="#000000" stroke="#000000" points="83.1001,-322.2504 79.6,-312.2504 76.1001,-322.2505 83.1001,-322.2504"/>
</g>
<!-- p2 -->
<g id="node3" class="node">
<title>p2</title>
<ellipse fill="none" stroke="#000000" cx="79.6" cy="-264.5" rx="3.5" ry="3.5"/>
<text text-anchor="middle" x="53.1" y="-271.8" font-family="Times,serif" font-size="14.00" fill="#000000">ifEmpty</text>
</g>
<!-- p1&#45;&gt;p2 -->
<g id="edge2" class="edge">
<title>p1&#45;&gt;p2</title>
<path fill="none" stroke="#000000" d="M79.6,-304.7486C79.6,-298.9686 79.6,-287.5915 79.6,-278.4038"/>
<polygon fill="#000000" stroke="#000000" points="83.1001,-278.2419 79.6,-268.2419 76.1001,-278.242 83.1001,-278.2419"/>
</g>
<!-- p3 -->
<g id="node4" class="node">
<title>p3</title>
<ellipse fill="none" stroke="#000000" cx="79.6" cy="-192" rx="30.5947" ry="18"/>
<text text-anchor="middle" x="79.6" y="-188.3" font-family="Times,serif" font-size="14.00" fill="#000000">unzip</text>
</g>
<!-- p2&#45;&gt;p3 -->
<g id="edge3" class="edge">
<title>p2&#45;&gt;p3</title>
<path fill="none" stroke="#000000" d="M79.6,-260.6021C79.6,-253.0027 79.6,-235.603 79.6,-220.2295"/>
<polygon fill="#000000" stroke="#000000" points="83.1001,-220.0553 79.6,-210.0553 76.1001,-220.0553 83.1001,-220.0553"/>
<text text-anchor="middle" x="108.6" y="-231.8" font-family="Times,serif" font-size="14.00" fill="#000000">input_data</text>
</g>
<!-- p5 -->
<g id="node5" class="node">
<title>p5</title>
<ellipse fill="none" stroke="#000000" cx="79.6" cy="-105" rx="57.3905" ry="18"/>
<text text-anchor="middle" x="79.6" y="-101.3" font-family="Times,serif" font-size="14.00" fill="#000000">pre_map_hla</text>
</g>
<!-- p3&#45;&gt;p5 -->
<g id="edge4" class="edge">
<title>p3&#45;&gt;p5</title>
<path fill="none" stroke="#000000" d="M79.6,-173.9735C79.6,-162.1918 79.6,-146.5607 79.6,-133.1581"/>
<polygon fill="#000000" stroke="#000000" points="83.1001,-133.0033 79.6,-123.0034 76.1001,-133.0034 83.1001,-133.0033"/>
<text text-anchor="middle" x="107.1" y="-144.8" font-family="Times,serif" font-size="14.00" fill="#000000">raw_reads</text>
</g>
<!-- p6 -->
<g id="node7" class="node">
<title>p6</title>
<ellipse fill="none" stroke="#000000" cx="150.6" cy="-18" rx="55.7903" ry="18"/>
<text text-anchor="middle" x="150.6" y="-14.3" font-family="Times,serif" font-size="14.00" fill="#000000">run_optitype</text>
</g>
<!-- p5&#45;&gt;p6 -->
<g id="edge6" class="edge">
<title>p5&#45;&gt;p6</title>
<path fill="none" stroke="#000000" d="M93.9679,-87.3943C104.2651,-74.7765 118.2919,-57.5887 129.8093,-43.4759"/>
<polygon fill="#000000" stroke="#000000" points="132.6424,-45.54 136.2535,-35.5796 127.2191,-41.1141 132.6424,-45.54"/>
<text text-anchor="middle" x="153.6" y="-57.8" font-family="Times,serif" font-size="14.00" fill="#000000">fished_reads</text>
</g>
<!-- p4 -->
<g id="node6" class="node">
<title>p4</title>
<ellipse fill="none" stroke="#000000" cx="222.6" cy="-105" rx="67.6881" ry="18"/>
<text text-anchor="middle" x="222.6" y="-101.3" font-family="Times,serif" font-size="14.00" fill="#000000">make_ot_config</text>
</g>
<!-- p4&#45;&gt;p6 -->
<g id="edge5" class="edge">
<title>p4&#45;&gt;p6</title>
<path fill="none" stroke="#000000" d="M213.4944,-87.1194C207.8759,-76.9093 200.1259,-64.1593 191.6,-54 188.0225,-49.7371 183.9277,-45.5348 179.7414,-41.5899"/>
<polygon fill="#000000" stroke="#000000" points="181.9758,-38.8922 172.1993,-34.8092 177.2958,-44.0977 181.9758,-38.8922"/>
<text text-anchor="middle" x="218.6" y="-57.8" font-family="Times,serif" font-size="14.00" fill="#000000">config</text>
</g>
</g>
</svg>
