<?xml version="1.0" encoding="UTF-8" standalone="no"?>
<!DOCTYPE svg PUBLIC "-//W3C//DTD SVG 1.1//EN"
 "http://www.w3.org/Graphics/SVG/1.1/DTD/svg11.dtd">
<!-- Generated by graphviz version 2.40.1 (20161225.0304)
 -->
<!-- Title: hlatyping_dag Pages: 1 -->
<svg width="271pt" height="292pt"
 viewBox="0.00 0.00 271.19 292.20" xmlns="http://www.w3.org/2000/svg" xmlns:xlink="http://www.w3.org/1999/xlink">
<g id="graph0" class="graph" transform="scale(1 1) rotate(0) translate(4 288.2)">
<title>hlatyping_dag</title>
<polygon fill="#ffffff" stroke="transparent" points="-4,4 -4,-288.2 267.194,-288.2 267.194,4 -4,4"/>
<!-- p0 -->
<g id="node1" class="node">
<title>p0</title>
<ellipse fill="#000000" stroke="#000000" cx="79.6" cy="-265.6" rx="3.6" ry="3.6"/>
<text text-anchor="middle" x="38" y="-273" font-family="Times,serif" font-size="14.00" fill="#000000">Channel.from</text>
</g>
<!-- p1 -->
<g id="node2" class="node">
<title>p1</title>
<ellipse fill="none" stroke="#000000" cx="79.6" cy="-221.5" rx="3.5" ry="3.5"/>
<text text-anchor="middle" x="63.6" y="-228.8" font-family="Times,serif" font-size="14.00" fill="#000000">map</text>
</g>
<!-- p0&#45;&gt;p1 -->
<g id="edge1" class="edge">
<title>p0&#45;&gt;p1</title>
<path fill="none" stroke="#000000" d="M79.6,-261.8401C79.6,-256.0469 79.6,-244.644 79.6,-235.4354"/>
<polygon fill="#000000" stroke="#000000" points="83.1001,-235.2504 79.6,-225.2504 76.1001,-235.2505 83.1001,-235.2504"/>
</g>
<!-- p2 -->
<g id="node3" class="node">
<title>p2</title>
<ellipse fill="none" stroke="#000000" cx="79.6" cy="-177.5" rx="3.5" ry="3.5"/>
<text text-anchor="middle" x="53.1" y="-184.8" font-family="Times,serif" font-size="14.00" fill="#000000">ifEmpty</text>
</g>
<!-- p1&#45;&gt;p2 -->
<g id="edge2" class="edge">
<title>p1&#45;&gt;p2</title>
<path fill="none" stroke="#000000" d="M79.6,-217.7486C79.6,-211.9686 79.6,-200.5915 79.6,-191.4038"/>
<polygon fill="#000000" stroke="#000000" points="83.1001,-191.2419 79.6,-181.2419 76.1001,-191.242 83.1001,-191.2419"/>
</g>
<!-- p3 -->
<g id="node4" class="node">
<title>p3</title>
<ellipse fill="none" stroke="#000000" cx="79.6" cy="-105" rx="30.5947" ry="18"/>
<text text-anchor="middle" x="79.6" y="-101.3" font-family="Times,serif" font-size="14.00" fill="#000000">unzip</text>
</g>
<!-- p2&#45;&gt;p3 -->
<g id="edge3" class="edge">
<title>p2&#45;&gt;p3</title>
<path fill="none" stroke="#000000" d="M79.6,-173.6021C79.6,-166.0027 79.6,-148.603 79.6,-133.2295"/>
<polygon fill="#000000" stroke="#000000" points="83.1001,-133.0553 79.6,-123.0553 76.1001,-133.0553 83.1001,-133.0553"/>
<text text-anchor="middle" x="108.6" y="-144.8" font-family="Times,serif" font-size="14.00" fill="#000000">input_data</text>
</g>
<!-- p5 -->
<g id="node5" class="node">
<title>p5</title>
<ellipse fill="none" stroke="#000000" cx="146.6" cy="-18" rx="55.7903" ry="18"/>
<text text-anchor="middle" x="146.6" y="-14.3" font-family="Times,serif" font-size="14.00" fill="#000000">run_optitype</text>
</g>
<!-- p3&#45;&gt;p5 -->
<g id="edge4" class="edge">
<title>p3&#45;&gt;p5</title>
<path fill="none" stroke="#000000" d="M88.0685,-87.1962C93.3079,-77.0116 100.5579,-64.2616 108.6,-54 111.811,-49.9028 115.4876,-45.8367 119.2606,-41.993"/>
<polygon fill="#000000" stroke="#000000" points="121.8025,-44.4034 126.5381,-34.9257 116.9258,-39.3816 121.8025,-44.4034"/>
<text text-anchor="middle" x="136.1" y="-57.8" font-family="Times,serif" font-size="14.00" fill="#000000">raw_reads</text>
</g>
<!-- p4 -->
<g id="node6" class="node">
<title>p4</title>
<ellipse fill="none" stroke="#000000" cx="195.6" cy="-105" rx="67.6881" ry="18"/>
<text text-anchor="middle" x="195.6" y="-101.3" font-family="Times,serif" font-size="14.00" fill="#000000">make_ot_config</text>
</g>
<!-- p4&#45;&gt;p5 -->
<g id="edge5" class="edge">
<title>p4&#45;&gt;p5</title>
<path fill="none" stroke="#000000" d="M185.4472,-86.9735C178.6144,-74.8418 169.4828,-58.6287 161.7899,-44.9698"/>
<polygon fill="#000000" stroke="#000000" points="164.6968,-42.9989 156.7398,-36.0034 158.5977,-46.4341 164.6968,-42.9989"/>
<text text-anchor="middle" x="190.6" y="-57.8" font-family="Times,serif" font-size="14.00" fill="#000000">config</text>
</g>
</g>
</svg>
